<?xml version="1.0" encoding="utf-8" standalone="no"?>
<!DOCTYPE svg PUBLIC "-//W3C//DTD SVG 1.1//EN"
  "http://www.w3.org/Graphics/SVG/1.1/DTD/svg11.dtd">
<svg xmlns:xlink="http://www.w3.org/1999/xlink" width="432pt" height="288pt" viewBox="0 0 432 288" xmlns="http://www.w3.org/2000/svg" version="1.1">
 <metadata>
  <rdf:RDF xmlns:dc="http://purl.org/dc/elements/1.1/" xmlns:cc="http://creativecommons.org/ns#" xmlns:rdf="http://www.w3.org/1999/02/22-rdf-syntax-ns#">
   <cc:Work>
    <dc:type rdf:resource="http://purl.org/dc/dcmitype/StillImage"/>
    <dc:date>2022-11-14T09:33:40.028624</dc:date>
    <dc:format>image/svg+xml</dc:format>
    <dc:creator>
     <cc:Agent>
      <dc:title>Matplotlib v3.5.1, https://matplotlib.org/</dc:title>
     </cc:Agent>
    </dc:creator>
   </cc:Work>
  </rdf:RDF>
 </metadata>
 <defs>
  <style type="text/css">*{stroke-linejoin: round; stroke-linecap: butt}</style>
 </defs>
 <g id="figure_1">
  <g id="patch_1">
   <path d="M 0 288 
L 432 288 
L 432 0 
L 0 0 
L 0 288 
z
" style="fill: none"/>
  </g>
  <g id="axes_1">
   <g id="patch_2">
    <path d="M 54 252 
L 388.8 252 
L 388.8 34.56 
L 54 34.56 
z
" style="fill: #ffffff"/>
   </g>
   <g id="matplotlib.axis_1">
    <g id="xtick_1">
     <g id="line2d_1">
      <defs>
       <path id="m1bdd383a7c" d="M 0 0 
L 0 3.5 
" style="stroke: #000000; stroke-width: 0.8"/>
      </defs>
      <g>
       <use xlink:href="#m1bdd383a7c" x="61.747174" y="252" style="stroke: #000000; stroke-width: 0.8"/>
      </g>
     </g>
     <g id="text_1">
      <!-- 41.90 -->
      <g transform="translate(47.433111 266.598437)scale(0.1 -0.1)">
       <defs>
        <path id="DejaVuSans-34" d="M 2419 4116 
L 825 1625 
L 2419 1625 
L 2419 4116 
z
M 2253 4666 
L 3047 4666 
L 3047 1625 
L 3713 1625 
L 3713 1100 
L 3047 1100 
L 3047 0 
L 2419 0 
L 2419 1100 
L 313 1100 
L 313 1709 
L 2253 4666 
z
" transform="scale(0.015625)"/>
        <path id="DejaVuSans-31" d="M 794 531 
L 1825 531 
L 1825 4091 
L 703 3866 
L 703 4441 
L 1819 4666 
L 2450 4666 
L 2450 531 
L 3481 531 
L 3481 0 
L 794 0 
L 794 531 
z
" transform="scale(0.015625)"/>
        <path id="DejaVuSans-2e" d="M 684 794 
L 1344 794 
L 1344 0 
L 684 0 
L 684 794 
z
" transform="scale(0.015625)"/>
        <path id="DejaVuSans-39" d="M 703 97 
L 703 672 
Q 941 559 1184 500 
Q 1428 441 1663 441 
Q 2288 441 2617 861 
Q 2947 1281 2994 2138 
Q 2813 1869 2534 1725 
Q 2256 1581 1919 1581 
Q 1219 1581 811 2004 
Q 403 2428 403 3163 
Q 403 3881 828 4315 
Q 1253 4750 1959 4750 
Q 2769 4750 3195 4129 
Q 3622 3509 3622 2328 
Q 3622 1225 3098 567 
Q 2575 -91 1691 -91 
Q 1453 -91 1209 -44 
Q 966 3 703 97 
z
M 1959 2075 
Q 2384 2075 2632 2365 
Q 2881 2656 2881 3163 
Q 2881 3666 2632 3958 
Q 2384 4250 1959 4250 
Q 1534 4250 1286 3958 
Q 1038 3666 1038 3163 
Q 1038 2656 1286 2365 
Q 1534 2075 1959 2075 
z
" transform="scale(0.015625)"/>
        <path id="DejaVuSans-30" d="M 2034 4250 
Q 1547 4250 1301 3770 
Q 1056 3291 1056 2328 
Q 1056 1369 1301 889 
Q 1547 409 2034 409 
Q 2525 409 2770 889 
Q 3016 1369 3016 2328 
Q 3016 3291 2770 3770 
Q 2525 4250 2034 4250 
z
M 2034 4750 
Q 2819 4750 3233 4129 
Q 3647 3509 3647 2328 
Q 3647 1150 3233 529 
Q 2819 -91 2034 -91 
Q 1250 -91 836 529 
Q 422 1150 422 2328 
Q 422 3509 836 4129 
Q 1250 4750 2034 4750 
z
" transform="scale(0.015625)"/>
       </defs>
       <use xlink:href="#DejaVuSans-34"/>
       <use xlink:href="#DejaVuSans-31" x="63.623047"/>
       <use xlink:href="#DejaVuSans-2e" x="127.246094"/>
       <use xlink:href="#DejaVuSans-39" x="159.033203"/>
       <use xlink:href="#DejaVuSans-30" x="222.65625"/>
      </g>
     </g>
    </g>
    <g id="xtick_2">
     <g id="line2d_2">
      <g>
       <use xlink:href="#m1bdd383a7c" x="111.713788" y="252" style="stroke: #000000; stroke-width: 0.8"/>
      </g>
     </g>
     <g id="text_2">
      <!-- 41.95 -->
      <g transform="translate(97.399725 266.598437)scale(0.1 -0.1)">
       <defs>
        <path id="DejaVuSans-35" d="M 691 4666 
L 3169 4666 
L 3169 4134 
L 1269 4134 
L 1269 2991 
Q 1406 3038 1543 3061 
Q 1681 3084 1819 3084 
Q 2600 3084 3056 2656 
Q 3513 2228 3513 1497 
Q 3513 744 3044 326 
Q 2575 -91 1722 -91 
Q 1428 -91 1123 -41 
Q 819 9 494 109 
L 494 744 
Q 775 591 1075 516 
Q 1375 441 1709 441 
Q 2250 441 2565 725 
Q 2881 1009 2881 1497 
Q 2881 1984 2565 2268 
Q 2250 2553 1709 2553 
Q 1456 2553 1204 2497 
Q 953 2441 691 2322 
L 691 4666 
z
" transform="scale(0.015625)"/>
       </defs>
       <use xlink:href="#DejaVuSans-34"/>
       <use xlink:href="#DejaVuSans-31" x="63.623047"/>
       <use xlink:href="#DejaVuSans-2e" x="127.246094"/>
       <use xlink:href="#DejaVuSans-39" x="159.033203"/>
       <use xlink:href="#DejaVuSans-35" x="222.65625"/>
      </g>
     </g>
    </g>
    <g id="xtick_3">
     <g id="line2d_3">
      <g>
       <use xlink:href="#m1bdd383a7c" x="161.680402" y="252" style="stroke: #000000; stroke-width: 0.8"/>
      </g>
     </g>
     <g id="text_3">
      <!-- 42.00 -->
      <g transform="translate(147.36634 266.598437)scale(0.1 -0.1)">
       <defs>
        <path id="DejaVuSans-32" d="M 1228 531 
L 3431 531 
L 3431 0 
L 469 0 
L 469 531 
Q 828 903 1448 1529 
Q 2069 2156 2228 2338 
Q 2531 2678 2651 2914 
Q 2772 3150 2772 3378 
Q 2772 3750 2511 3984 
Q 2250 4219 1831 4219 
Q 1534 4219 1204 4116 
Q 875 4013 500 3803 
L 500 4441 
Q 881 4594 1212 4672 
Q 1544 4750 1819 4750 
Q 2544 4750 2975 4387 
Q 3406 4025 3406 3419 
Q 3406 3131 3298 2873 
Q 3191 2616 2906 2266 
Q 2828 2175 2409 1742 
Q 1991 1309 1228 531 
z
" transform="scale(0.015625)"/>
       </defs>
       <use xlink:href="#DejaVuSans-34"/>
       <use xlink:href="#DejaVuSans-32" x="63.623047"/>
       <use xlink:href="#DejaVuSans-2e" x="127.246094"/>
       <use xlink:href="#DejaVuSans-30" x="159.033203"/>
       <use xlink:href="#DejaVuSans-30" x="222.65625"/>
      </g>
     </g>
    </g>
    <g id="xtick_4">
     <g id="line2d_4">
      <g>
       <use xlink:href="#m1bdd383a7c" x="211.647017" y="252" style="stroke: #000000; stroke-width: 0.8"/>
      </g>
     </g>
     <g id="text_4">
      <!-- 42.05 -->
      <g transform="translate(197.332954 266.598437)scale(0.1 -0.1)">
       <use xlink:href="#DejaVuSans-34"/>
       <use xlink:href="#DejaVuSans-32" x="63.623047"/>
       <use xlink:href="#DejaVuSans-2e" x="127.246094"/>
       <use xlink:href="#DejaVuSans-30" x="159.033203"/>
       <use xlink:href="#DejaVuSans-35" x="222.65625"/>
      </g>
     </g>
    </g>
    <g id="xtick_5">
     <g id="line2d_5">
      <g>
       <use xlink:href="#m1bdd383a7c" x="261.613631" y="252" style="stroke: #000000; stroke-width: 0.8"/>
      </g>
     </g>
     <g id="text_5">
      <!-- 42.10 -->
      <g transform="translate(247.299568 266.598437)scale(0.1 -0.1)">
       <use xlink:href="#DejaVuSans-34"/>
       <use xlink:href="#DejaVuSans-32" x="63.623047"/>
       <use xlink:href="#DejaVuSans-2e" x="127.246094"/>
       <use xlink:href="#DejaVuSans-31" x="159.033203"/>
       <use xlink:href="#DejaVuSans-30" x="222.65625"/>
      </g>
     </g>
    </g>
    <g id="xtick_6">
     <g id="line2d_6">
      <g>
       <use xlink:href="#m1bdd383a7c" x="311.580245" y="252" style="stroke: #000000; stroke-width: 0.8"/>
      </g>
     </g>
     <g id="text_6">
      <!-- 42.15 -->
      <g transform="translate(297.266183 266.598437)scale(0.1 -0.1)">
       <use xlink:href="#DejaVuSans-34"/>
       <use xlink:href="#DejaVuSans-32" x="63.623047"/>
       <use xlink:href="#DejaVuSans-2e" x="127.246094"/>
       <use xlink:href="#DejaVuSans-31" x="159.033203"/>
       <use xlink:href="#DejaVuSans-35" x="222.65625"/>
      </g>
     </g>
    </g>
    <g id="xtick_7">
     <g id="line2d_7">
      <g>
       <use xlink:href="#m1bdd383a7c" x="361.546859" y="252" style="stroke: #000000; stroke-width: 0.8"/>
      </g>
     </g>
     <g id="text_7">
      <!-- 42.20 -->
      <g transform="translate(347.232797 266.598437)scale(0.1 -0.1)">
       <use xlink:href="#DejaVuSans-34"/>
       <use xlink:href="#DejaVuSans-32" x="63.623047"/>
       <use xlink:href="#DejaVuSans-2e" x="127.246094"/>
       <use xlink:href="#DejaVuSans-32" x="159.033203"/>
       <use xlink:href="#DejaVuSans-30" x="222.65625"/>
      </g>
     </g>
    </g>
   </g>
   <g id="matplotlib.axis_2">
    <g id="ytick_1">
     <g id="line2d_8">
      <defs>
       <path id="m2287e8fd17" d="M 0 0 
L -3.5 0 
" style="stroke: #000000; stroke-width: 0.8"/>
      </defs>
      <g>
       <use xlink:href="#m2287e8fd17" x="54" y="226.145291" style="stroke: #000000; stroke-width: 0.8"/>
      </g>
     </g>
     <g id="text_8">
      <!-- 4.825 -->
      <g transform="translate(18.371875 229.94451)scale(0.1 -0.1)">
       <defs>
        <path id="DejaVuSans-38" d="M 2034 2216 
Q 1584 2216 1326 1975 
Q 1069 1734 1069 1313 
Q 1069 891 1326 650 
Q 1584 409 2034 409 
Q 2484 409 2743 651 
Q 3003 894 3003 1313 
Q 3003 1734 2745 1975 
Q 2488 2216 2034 2216 
z
M 1403 2484 
Q 997 2584 770 2862 
Q 544 3141 544 3541 
Q 544 4100 942 4425 
Q 1341 4750 2034 4750 
Q 2731 4750 3128 4425 
Q 3525 4100 3525 3541 
Q 3525 3141 3298 2862 
Q 3072 2584 2669 2484 
Q 3125 2378 3379 2068 
Q 3634 1759 3634 1313 
Q 3634 634 3220 271 
Q 2806 -91 2034 -91 
Q 1263 -91 848 271 
Q 434 634 434 1313 
Q 434 1759 690 2068 
Q 947 2378 1403 2484 
z
M 1172 3481 
Q 1172 3119 1398 2916 
Q 1625 2713 2034 2713 
Q 2441 2713 2670 2916 
Q 2900 3119 2900 3481 
Q 2900 3844 2670 4047 
Q 2441 4250 2034 4250 
Q 1625 4250 1398 4047 
Q 1172 3844 1172 3481 
z
" transform="scale(0.015625)"/>
       </defs>
       <use xlink:href="#DejaVuSans-34"/>
       <use xlink:href="#DejaVuSans-2e" x="63.623047"/>
       <use xlink:href="#DejaVuSans-38" x="95.410156"/>
       <use xlink:href="#DejaVuSans-32" x="159.033203"/>
       <use xlink:href="#DejaVuSans-35" x="222.65625"/>
      </g>
     </g>
    </g>
    <g id="ytick_2">
     <g id="line2d_9">
      <g>
       <use xlink:href="#m2287e8fd17" x="54" y="198.60706" style="stroke: #000000; stroke-width: 0.8"/>
      </g>
     </g>
     <g id="text_9">
      <!-- 4.850 -->
      <g transform="translate(18.371875 202.406279)scale(0.1 -0.1)">
       <use xlink:href="#DejaVuSans-34"/>
       <use xlink:href="#DejaVuSans-2e" x="63.623047"/>
       <use xlink:href="#DejaVuSans-38" x="95.410156"/>
       <use xlink:href="#DejaVuSans-35" x="159.033203"/>
       <use xlink:href="#DejaVuSans-30" x="222.65625"/>
      </g>
     </g>
    </g>
    <g id="ytick_3">
     <g id="line2d_10">
      <g>
       <use xlink:href="#m2287e8fd17" x="54" y="171.068829" style="stroke: #000000; stroke-width: 0.8"/>
      </g>
     </g>
     <g id="text_10">
      <!-- 4.875 -->
      <g transform="translate(18.371875 174.868048)scale(0.1 -0.1)">
       <defs>
        <path id="DejaVuSans-37" d="M 525 4666 
L 3525 4666 
L 3525 4397 
L 1831 0 
L 1172 0 
L 2766 4134 
L 525 4134 
L 525 4666 
z
" transform="scale(0.015625)"/>
       </defs>
       <use xlink:href="#DejaVuSans-34"/>
       <use xlink:href="#DejaVuSans-2e" x="63.623047"/>
       <use xlink:href="#DejaVuSans-38" x="95.410156"/>
       <use xlink:href="#DejaVuSans-37" x="159.033203"/>
       <use xlink:href="#DejaVuSans-35" x="222.65625"/>
      </g>
     </g>
    </g>
    <g id="ytick_4">
     <g id="line2d_11">
      <g>
       <use xlink:href="#m2287e8fd17" x="54" y="143.530598" style="stroke: #000000; stroke-width: 0.8"/>
      </g>
     </g>
     <g id="text_11">
      <!-- 4.900 -->
      <g transform="translate(18.371875 147.329817)scale(0.1 -0.1)">
       <use xlink:href="#DejaVuSans-34"/>
       <use xlink:href="#DejaVuSans-2e" x="63.623047"/>
       <use xlink:href="#DejaVuSans-39" x="95.410156"/>
       <use xlink:href="#DejaVuSans-30" x="159.033203"/>
       <use xlink:href="#DejaVuSans-30" x="222.65625"/>
      </g>
     </g>
    </g>
    <g id="ytick_5">
     <g id="line2d_12">
      <g>
       <use xlink:href="#m2287e8fd17" x="54" y="115.992367" style="stroke: #000000; stroke-width: 0.8"/>
      </g>
     </g>
     <g id="text_12">
      <!-- 4.925 -->
      <g transform="translate(18.371875 119.791586)scale(0.1 -0.1)">
       <use xlink:href="#DejaVuSans-34"/>
       <use xlink:href="#DejaVuSans-2e" x="63.623047"/>
       <use xlink:href="#DejaVuSans-39" x="95.410156"/>
       <use xlink:href="#DejaVuSans-32" x="159.033203"/>
       <use xlink:href="#DejaVuSans-35" x="222.65625"/>
      </g>
     </g>
    </g>
    <g id="ytick_6">
     <g id="line2d_13">
      <g>
       <use xlink:href="#m2287e8fd17" x="54" y="88.454136" style="stroke: #000000; stroke-width: 0.8"/>
      </g>
     </g>
     <g id="text_13">
      <!-- 4.950 -->
      <g transform="translate(18.371875 92.253354)scale(0.1 -0.1)">
       <use xlink:href="#DejaVuSans-34"/>
       <use xlink:href="#DejaVuSans-2e" x="63.623047"/>
       <use xlink:href="#DejaVuSans-39" x="95.410156"/>
       <use xlink:href="#DejaVuSans-35" x="159.033203"/>
       <use xlink:href="#DejaVuSans-30" x="222.65625"/>
      </g>
     </g>
    </g>
    <g id="ytick_7">
     <g id="line2d_14">
      <g>
       <use xlink:href="#m2287e8fd17" x="54" y="60.915905" style="stroke: #000000; stroke-width: 0.8"/>
      </g>
     </g>
     <g id="text_14">
      <!-- 4.975 -->
      <g transform="translate(18.371875 64.715123)scale(0.1 -0.1)">
       <use xlink:href="#DejaVuSans-34"/>
       <use xlink:href="#DejaVuSans-2e" x="63.623047"/>
       <use xlink:href="#DejaVuSans-39" x="95.410156"/>
       <use xlink:href="#DejaVuSans-37" x="159.033203"/>
       <use xlink:href="#DejaVuSans-35" x="222.65625"/>
      </g>
     </g>
    </g>
   </g>
   <g id="line2d_15">
    <path d="M 304.28412 53.32747 
L 303.318765 52.96066 
L 300.603579 51.666364 
L 286.657897 52.645623 
L 282.123927 51.555109 
L 277.166239 49.932557 
L 272.995026 47.546644 
L 267.708558 46.164225 
L 262.539013 44.51083 
L 257.726228 45.450434 
L 254.43143 49.606504 
L 249.931436 51.31828 
L 245.198599 51.280828 
L 240.274889 52.364733 
L 237.437784 54.087525 
L 234.76457 56.466828 
L 231.195955 59.455277 
L 228.633667 64.069583 
L 226.351192 68.595767 
L 225.819547 73.54714 
L 222.562723 82.647975 
L 219.162995 92.465905 
L 216.717629 97.680545 
L 214.901842 102.382973 
L 214.406173 108.157189 
L 215.574392 114.161625 
L 217.752937 119.507347 
L 219.875519 123.537842 
L 220.181314 129.301043 
L 220.72595 133.198254 
L 221.606362 137.384065 
L 221.700299 142.606415 
L 220.985777 147.015836 
L 221.267588 149.297103 
L 221.247602 149.992168 
L 219.860529 150.265348 
L 215.745278 150.831534 
L 211.075398 149.949209 
L 206.937163 148.967746 
L 206.011782 149.724497 
L 206.320575 149.443607 
L 206.641361 149.084508 
L 203.447495 148.298016 
L 201.925512 145.764499 
L 198.99447 141.357281 
L 195.98648 137.500827 
L 189.578762 129.034473 
L 185.274638 126.562641 
L 179.200696 125.746408 
L 178.680044 125.630748 
L 177.196035 125.739799 
L 176.069788 129.620487 
L 174.950536 131.37302 
L 168.720698 131.350989 
L 166.880927 131.585615 
L 165.063142 132.787383 
L 161.515512 134.14667 
L 152.01586 138.204704 
L 144.930594 141.078594 
L 142.60215 143.045925 
L 144.533859 146.266797 
L 143.203748 148.011619 
L 141.753716 148.691262 
L 139.145459 146.322975 
L 134.942268 147.557789 
L 130.958929 144.232272 
L 126.986583 139.90877 
L 121.561208 137.078941 
L 111.715787 137.371948 
L 110.3487 136.997428 
L 109.637175 136.485217 
L 107.637512 132.554961 
L 106.122524 127.26762 
L 102.526926 122.003412 
L 95.311747 112.218528 
L 91.239468 108.793873 
L 87.977647 107.333245 
L 84.271124 105.448529 
L 80.800443 107.136072 
L 78.149214 109.328115 
L 75.414042 111.07514 
L 73.752152 111.542189 
L 72.987663 112.27801 
L 71.389731 114.129681 
L 70.70219 115.282982 
L 69.705856 118.122724 
L 69.407056 119.769511 
L 69.218182 121.437226 
L 69.915716 121.078127 
L 71.133902 120.795034 
L 71.64556 121.338088 
L 71.303788 122.025442 
L 71.515647 122.761264 
L 71.558618 123.623761 
L 71.314781 124.437792 
L 71.314781 124.437792 
L 71.327772 124.844256 
L 71.19686 125.289274 
L 71.251823 125.280461 
L 71.263815 124.524812 
L 71.571609 123.225008 
L 71.248825 122.062894 
L 71.404721 121.790817 
L 71.282802 122.003412 
L 71.612582 122.516725 
L 71.612582 122.516725 
L 71.769477 122.535451 
L 71.892395 122.759061 
L 71.981336 122.652213 
L 71.248825 122.234733 
L 71.604587 123.107144 
L 71.33177 125.26504 
L 71.263815 124.39373 
L 71.516646 123.511405 
L 71.481669 122.785498 
L 71.269811 122.077214 
L 71.392729 122.349292 
L 71.947358 122.647807 
L 71.290797 122.242444 
L 71.481669 122.735929 
L 71.584601 123.383628 
L 71.33077 124.217486 
L 71.213848 125.321218 
L 71.456686 122.840574 
L 71.265814 122.133392 
L 71.37574 122.404369 
L 71.98933 122.675345 
L 71.401723 122.338277 
L 71.591596 122.803122 
L 71.681536 123.317536 
L 71.264814 125.304695 
L 71.319778 125.26504 
L 71.276806 124.509391 
L 71.507652 123.568685 
L 71.273808 122.087128 
L 71.439697 122.406572 
L 71.93037 122.609253 
L 71.274808 122.338277 
L 71.575607 123.132479 
L 71.16688 125.2364 
L 71.33177 125.245212 
L 71.276806 124.721986 
L 71.432702 123.870504 
L 71.464681 122.73703 
L 71.273808 122.116869 
L 71.40572 122.358104 
L 71.972342 122.65772 
L 71.371743 122.242444 
L 71.358752 122.415384 
L 71.4357 122.570699 
L 71.626573 123.239328 
L 71.36075 124.276968 
L 71.348758 125.26504 
L 71.326773 124.189947 
L 71.592595 123.230515 
L 71.324774 122.23253 
L 71.612582 122.522232 
L 71.947358 122.627979 
L 71.803454 122.570699 
L 71.379738 122.280997 
L 71.324774 122.415384 
L 71.579604 123.025631 
L 71.348758 125.292578 
L 71.567612 123.470649 
L 71.312782 122.15322 
L 71.477672 122.425298 
L 71.976339 122.618065 
L 71.621576 122.511217 
L 71.354754 122.249053 
L 71.63057 123.285592 
L 71.440697 124.080896 
L 71.25582 125.254025 
L 71.268812 125.167004 
L 71.267812 124.508289 
L 71.478671 123.78128 
L 71.443695 122.706188 
L 71.299791 122.105854 
L 71.409718 122.357003 
L 71.93037 122.579512 
L 71.2868 122.269982 
L 71.566613 122.861503 
L 71.588598 123.189759 
L 71.389731 124.023617 
L 71.344761 125.235299 
L 71.385734 124.06217 
L 71.605587 123.249241 
L 71.324774 122.116869 
L 71.447692 122.368018 
L 71.938364 122.579512 
L 71.31678 122.221515 
L 71.371743 122.43411 
L 71.604587 123.169931 
L 71.221843 125.213268 
L 71.344761 125.252923 
L 71.356753 124.138176 
L 71.575607 123.382527 
L 71.307786 122.076113 
L 71.37574 122.249053 
L 71.608585 122.500202 
L 71.976339 122.60705 
L 71.888398 122.57841 
L 71.291796 122.336074 
L 71.57061 122.897854 
L 71.327772 125.213268 
L 71.621576 123.178744 
L 71.333768 122.055184 
L 71.955353 122.568496 
L 71.426706 122.258967 
L 71.324774 122.29752 
L 71.613581 122.957336 
L 71.213848 125.224283 
L 71.302789 125.215471 
L 71.246826 124.402543 
L 71.491663 123.520218 
L 71.269811 122.027646 
L 71.934367 122.570699 
L 71.566613 122.453937 
L 71.278805 122.221515 
L 71.613581 123.055372 
L 71.546626 123.685447 
L 71.314781 124.432284 
L 71.234834 125.263938 
L 71.902388 124.516 
L 72.155219 123.790092 
L 72.210183 123.141292 
L 72.54396 122.675345 
L 73.02164 122.482577 
L 72.76781 122.531044 
L 72.269143 123.084012 
L 72.113247 124.129363 
L 71.813448 124.769352 
L 71.314781 125.234197 
L 71.424708 125.224283 
L 72.156219 124.100724 
L 72.269143 123.092824 
L 72.822773 122.520029 
L 73.15655 122.316246 
L 72.809782 122.479273 
L 72.910715 122.120174 
L 72.733833 122.303028 
L 72.589929 122.613659 
L 72.235166 123.108246 
L 72.21418 123.612746 
L 72.037298 124.308913 
L 71.327772 125.365279 
L 71.374741 125.296984 
L 71.36175 124.937886 
L 71.66055 123.193063 
L 71.783468 123.601731 
L 71.79546 123.476157 
L 71.664547 123.661213 
L 71.677539 123.312029 
L 71.311783 121.985787 
L 71.611583 121.43282 
L 71.366746 120.996614 
L 70.854089 120.657343 
L 70.287467 120.890867 
L 69.269148 121.791918 
L 69.369081 120.134117 
L 69.524977 119.039197 
L 69.802791 118.051125 
L 70.233503 116.974931 
L 70.486334 115.985758 
L 70.896061 115.026326 
L 71.461683 114.192468 
L 73.613245 111.758088 
L 75.076268 111.147841 
L 76.006646 111.011252 
L 77.723499 110.147653 
L 79.430358 107.839949 
L 80.350743 106.153508 
L 81.271129 103.906388 
L 77.331761 101.806873 
L 77.331761 101.370668 
L 79.418366 102.734361 
L 87.769786 106.999482 
L 90.833739 108.400627 
L 92.187834 109.36777 
L 95.404685 112.144725 
L 101.704476 120.661749 
L 105.557901 124.870693 
L 107.592542 129.643619 
L 108.951634 135.423343 
L 112.790069 137.365339 
L 118.308382 136.835503 
L 123.829693 138.116582 
L 128.920291 140.782282 
L 131.132813 145.087059 
L 134.930276 147.541266 
L 139.42927 146.430924 
L 142.802016 148.226417 
L 144.686757 146.454057 
L 142.652116 143.059143 
L 144.29202 141.401342 
L 165.430896 132.51861 
L 167.214704 131.588919 
L 168.724696 131.354294 
L 171.064132 131.225415 
L 172.747008 131.339974 
L 175.086445 131.337771 
L 176.00683 129.662345 
L 177.145069 125.916044 
L 178.108426 125.238603 
L 180.426877 125.778353 
L 183.65472 126.305985 
L 188.346585 127.80076 
L 192.022129 131.966744 
L 195.520791 136.720944 
L 199.171352 141.417865 
L 202.502127 146.454057 
L 204.775608 148.434606 
L 211.600048 150.079189 
L 216.346876 150.905336 
L 221.082712 150.319323 
L 221.012759 148.104147 
L 221.241606 144.611198 
L 221.528414 144.039504 
L 222.092038 140.89574 
L 221.299567 135.537902 
L 220.508096 131.051373 
L 219.534746 120.519652 
L 216.315897 116.404339 
L 214.658005 110.119013 
L 214.830889 104.103562 
L 216.53575 98.298503 
L 218.817226 93.761304 
L 224.809222 75.247902 
L 225.704624 69.986998 
L 228.409816 65.05435 
L 230.248588 60.479699 
L 233.407477 57.026405 
L 236.676293 54.976459 
L 238.393146 53.448638 
L 242.483413 51.630013 
L 246.441768 51.909802 
L 250.346159 51.077045 
L 253.805848 49.830114 
L 256.985723 46.26116 
L 261.066996 44.443636 
L 266.257528 45.911975 
L 271.19323 47.070784 
L 276.205881 49.573458 
L 285.520657 52.768994 
L 297.613577 51.887771 
L 301.437022 52.080539 
L 304.00031 53.286713 
L 304.453007 53.141311 
L 304.41903 52.985996 
L 304.41903 52.985996 
" clip-path="url(#p92e0f899e7)" style="fill: none; stroke: #1f77b4; stroke-width: 1.5; stroke-linecap: square"/>
   </g>
   <g id="line2d_16">
    <path d="M 249.642629 233.348191 
L 250.944759 235.172323 
L 255.539689 231.643024 
L 258.009039 229.326508 
L 259.118298 227.903332 
L 261.686582 226.079199 
L 263.633281 224.11297 
L 264.685578 224.003918 
L 266.857127 222.567524 
L 267.28784 222.006846 
L 267.67658 221.686301 
L 270.436736 220.655269 
L 274.978701 218.034731 
L 279.654577 217.037847 
L 282.099943 219.845645 
L 289.737839 219.14287 
L 290.836106 218.309012 
L 292.463019 217.387032 
L 296.003653 217.331956 
L 298.306114 216.274488 
L 300.556611 216.471661 
L 307.282117 213.87756 
L 310.573918 212.324404 
L 313.53394 211.892604 
L 315.891365 210.129056 
L 317.727138 208.135288 
L 321.428665 205.55771 
L 325.774761 204.206133 
L 329.694142 201.117445 
L 333.325716 197.131011 
L 336.136837 193.54333 
L 338.126508 189.66815 
L 340.746757 185.384303 
L 343.599851 181.429813 
L 345.091854 177.246205 
L 350.747075 171.877351 
L 352.900637 171.79694 
L 357.216753 173.488889 
L 362.29436 171.297947 
L 363.037863 170.775822 
L 365.165442 171.00494 
L 367.663772 172.959053 
L 369.947247 172.550386 
L 373.391945 170.779127 
L 373.581818 170.102788 
L 371.066499 171.51605 
L 368.264371 172.649523 
L 366.588491 172.237552 
L 363.968242 170.601781 
L 360.641464 172.518441 
L 355.999566 173.762068 
L 352.350004 171.722036 
L 350.798041 171.706614 
L 352.92562 162.422926 
L 353.033548 160.607606 
L 349.414966 159.07648 
L 346.410973 158.43539 
L 343.894654 158.429882 
L 341.112513 158.964124 
L 333.938306 158.966327 
L 333.297734 160.782749 
L 334.732776 164.893656 
L 336.734438 168.762227 
L 339.446626 172.43803 
L 341.325371 176.153488 
L 341.88 176.694339 
L 343.681796 179.346821 
L 343.031231 182.70979 
L 340.00925 186.886789 
L 337.342032 191.042859 
L 334.908658 195.479819 
L 331.441974 199.358303 
L 330.46063 201.689139 
L 332.172486 203.192726 
L 334.523915 203.139853 
L 335.127512 204.789944 
L 334.929644 205.630411 
L 332.425317 207.568 
L 330.540577 208.963638 
L 329.6082 207.720011 
L 329.239446 207.015033 
L 329.750105 206.394872 
L 329.359366 205.729548 
L 328.536915 204.774522 
L 327.702473 203.772131 
L 327.900341 203.357956 
L 327.610534 202.074674 
L 326.402342 202.994451 
L 325.646846 201.450107 
L 324.559573 201.02712 
L 324.546582 200.901545 
L 325.811736 201.450107 
L 326.713134 204.122417 
L 326.324394 204.346027 
L 324.053911 205.036686 
L 324.482624 205.65134 
L 325.003276 206.248368 
L 324.305742 206.452151 
L 323.826063 205.169971 
L 322.152181 205.655746 
L 321.45065 204.004553 
L 320.311411 205.340708 
L 318.369709 205.268007 
L 317.462315 206.246165 
L 317.11055 208.168334 
L 315.92834 209.427382 
L 315.238801 209.795293 
L 314.187503 210.550942 
L 310.650866 210.183031 
L 306.545609 209.225802 
L 301.434024 207.845586 
L 300.723499 207.809235 
L 298.28313 207.998698 
L 291.020982 207.918287 
L 290.927045 205.290038 
L 290.224514 202.567058 
L 288.302798 201.739809 
L 287.347437 199.209597 
L 284.657234 194.489544 
L 285.346773 194.217466 
L 285.124922 193.135764 
L 282.596611 193.798885 
L 282.606604 192.195058 
L 279.932391 191.214697 
L 276.195888 190.4965 
L 274.643925 190.915081 
L 273.323807 190.172651 
L 270.3408 189.945736 
L 269.398429 190.32356 
L 268.346132 191.020828 
L 254.904114 206.202104 
L 252.489727 209.367899 
L 251.634299 208.391944 
L 250.469077 207.515127 
L 249.869478 207.903967 
L 249.048027 207.31575 
L 247.640967 208.409569 
L 247.78587 208.961435 
L 247.41112 209.803003 
L 245.396467 211.566552 
L 244.421118 212.573349 
L 242.740241 213.804859 
L 241.687944 214.377654 
L 240.348839 215.396569 
L 240.350838 216.373625 
L 240.350838 216.316346 
L 240.218926 216.055283 
L 215.427491 138.388659 
L 215.393513 138.600153 
L 217.727954 141.624952 
L 218.7063 143.508567 
L 218.488445 145.423025 
L 219.091043 146.940932 
L 219.614693 149.889726 
L 219.217958 150.953803 
L 217.259267 153.461986 
L 215.961134 154.4809 
L 215.03975 154.732049 
L 212.114704 156.225722 
L 210.385859 156.935107 
L 208.730965 155.922802 
L 209.421504 156.927397 
L 211.063406 157.842767 
L 212.385523 159.89051 
L 212.865203 161.070248 
L 215.208637 164.829767 
L 216.510767 167.41065 
L 221.648334 175.418768 
L 225.795563 176.813304 
L 227.273576 178.299267 
L 228.590695 185.134256 
L 229.095358 189.000624 
L 231.031065 193.204059 
L 231.387827 194.383797 
L 232.436126 199.071905 
L 232.511076 202.997756 
L 232.207279 208.488879 
L 231.201951 211.836426 
L 229.395158 218.579988 
L 225.553725 226.566075 
L 224.839202 229.110608 
L 223.138339 233.022138 
L 220.294239 236.296985 
L 219.61969 237.470113 
L 218.504435 240.345105 
L 217.586048 242.116364 
L 217.408167 241.836575 
L 217.408167 241.836575 
" clip-path="url(#p92e0f899e7)" style="fill: none; stroke: #ff7f0e; stroke-width: 1.5; stroke-linecap: square"/>
   </g>
   <g id="patch_3">
    <path d="M 54 252 
L 54 34.56 
" style="fill: none; stroke: #000000; stroke-width: 0.8; stroke-linejoin: miter; stroke-linecap: square"/>
   </g>
   <g id="patch_4">
    <path d="M 388.8 252 
L 388.8 34.56 
" style="fill: none; stroke: #000000; stroke-width: 0.8; stroke-linejoin: miter; stroke-linecap: square"/>
   </g>
   <g id="patch_5">
    <path d="M 54 252 
L 388.8 252 
" style="fill: none; stroke: #000000; stroke-width: 0.8; stroke-linejoin: miter; stroke-linecap: square"/>
   </g>
   <g id="patch_6">
    <path d="M 54 34.56 
L 388.8 34.56 
" style="fill: none; stroke: #000000; stroke-width: 0.8; stroke-linejoin: miter; stroke-linecap: square"/>
   </g>
   <g id="legend_1">
    <g id="patch_7">
     <path d="M 323.429688 71.91625 
L 381.8 71.91625 
Q 383.8 71.91625 383.8 69.91625 
L 383.8 41.56 
Q 383.8 39.56 381.8 39.56 
L 323.429688 39.56 
Q 321.429688 39.56 321.429688 41.56 
L 321.429688 69.91625 
Q 321.429688 71.91625 323.429688 71.91625 
z
" style="fill: #ffffff; opacity: 0.8; stroke: #cccccc; stroke-linejoin: miter"/>
    </g>
    <g id="line2d_17">
     <path d="M 325.429688 47.658437 
L 335.429688 47.658437 
L 345.429688 47.658437 
" style="fill: none; stroke: #1f77b4; stroke-width: 1.5; stroke-linecap: square"/>
    </g>
    <g id="text_15">
     <!-- Truck -->
     <g transform="translate(353.429688 51.158437)scale(0.1 -0.1)">
      <defs>
       <path id="DejaVuSans-54" d="M -19 4666 
L 3928 4666 
L 3928 4134 
L 2272 4134 
L 2272 0 
L 1638 0 
L 1638 4134 
L -19 4134 
L -19 4666 
z
" transform="scale(0.015625)"/>
       <path id="DejaVuSans-72" d="M 2631 2963 
Q 2534 3019 2420 3045 
Q 2306 3072 2169 3072 
Q 1681 3072 1420 2755 
Q 1159 2438 1159 1844 
L 1159 0 
L 581 0 
L 581 3500 
L 1159 3500 
L 1159 2956 
Q 1341 3275 1631 3429 
Q 1922 3584 2338 3584 
Q 2397 3584 2469 3576 
Q 2541 3569 2628 3553 
L 2631 2963 
z
" transform="scale(0.015625)"/>
       <path id="DejaVuSans-75" d="M 544 1381 
L 544 3500 
L 1119 3500 
L 1119 1403 
Q 1119 906 1312 657 
Q 1506 409 1894 409 
Q 2359 409 2629 706 
Q 2900 1003 2900 1516 
L 2900 3500 
L 3475 3500 
L 3475 0 
L 2900 0 
L 2900 538 
Q 2691 219 2414 64 
Q 2138 -91 1772 -91 
Q 1169 -91 856 284 
Q 544 659 544 1381 
z
M 1991 3584 
L 1991 3584 
z
" transform="scale(0.015625)"/>
       <path id="DejaVuSans-63" d="M 3122 3366 
L 3122 2828 
Q 2878 2963 2633 3030 
Q 2388 3097 2138 3097 
Q 1578 3097 1268 2742 
Q 959 2388 959 1747 
Q 959 1106 1268 751 
Q 1578 397 2138 397 
Q 2388 397 2633 464 
Q 2878 531 3122 666 
L 3122 134 
Q 2881 22 2623 -34 
Q 2366 -91 2075 -91 
Q 1284 -91 818 406 
Q 353 903 353 1747 
Q 353 2603 823 3093 
Q 1294 3584 2113 3584 
Q 2378 3584 2631 3529 
Q 2884 3475 3122 3366 
z
" transform="scale(0.015625)"/>
       <path id="DejaVuSans-6b" d="M 581 4863 
L 1159 4863 
L 1159 1991 
L 2875 3500 
L 3609 3500 
L 1753 1863 
L 3688 0 
L 2938 0 
L 1159 1709 
L 1159 0 
L 581 0 
L 581 4863 
z
" transform="scale(0.015625)"/>
      </defs>
      <use xlink:href="#DejaVuSans-54"/>
      <use xlink:href="#DejaVuSans-72" x="46.333984"/>
      <use xlink:href="#DejaVuSans-75" x="87.447266"/>
      <use xlink:href="#DejaVuSans-63" x="150.826172"/>
      <use xlink:href="#DejaVuSans-6b" x="205.806641"/>
     </g>
    </g>
    <g id="line2d_18">
     <path d="M 325.429688 62.336562 
L 335.429688 62.336562 
L 345.429688 62.336562 
" style="fill: none; stroke: #ff7f0e; stroke-width: 1.5; stroke-linecap: square"/>
    </g>
    <g id="text_16">
     <!-- Bus -->
     <g transform="translate(353.429688 65.836562)scale(0.1 -0.1)">
      <defs>
       <path id="DejaVuSans-42" d="M 1259 2228 
L 1259 519 
L 2272 519 
Q 2781 519 3026 730 
Q 3272 941 3272 1375 
Q 3272 1813 3026 2020 
Q 2781 2228 2272 2228 
L 1259 2228 
z
M 1259 4147 
L 1259 2741 
L 2194 2741 
Q 2656 2741 2882 2914 
Q 3109 3088 3109 3444 
Q 3109 3797 2882 3972 
Q 2656 4147 2194 4147 
L 1259 4147 
z
M 628 4666 
L 2241 4666 
Q 2963 4666 3353 4366 
Q 3744 4066 3744 3513 
Q 3744 3084 3544 2831 
Q 3344 2578 2956 2516 
Q 3422 2416 3680 2098 
Q 3938 1781 3938 1306 
Q 3938 681 3513 340 
Q 3088 0 2303 0 
L 628 0 
L 628 4666 
z
" transform="scale(0.015625)"/>
       <path id="DejaVuSans-73" d="M 2834 3397 
L 2834 2853 
Q 2591 2978 2328 3040 
Q 2066 3103 1784 3103 
Q 1356 3103 1142 2972 
Q 928 2841 928 2578 
Q 928 2378 1081 2264 
Q 1234 2150 1697 2047 
L 1894 2003 
Q 2506 1872 2764 1633 
Q 3022 1394 3022 966 
Q 3022 478 2636 193 
Q 2250 -91 1575 -91 
Q 1294 -91 989 -36 
Q 684 19 347 128 
L 347 722 
Q 666 556 975 473 
Q 1284 391 1588 391 
Q 1994 391 2212 530 
Q 2431 669 2431 922 
Q 2431 1156 2273 1281 
Q 2116 1406 1581 1522 
L 1381 1569 
Q 847 1681 609 1914 
Q 372 2147 372 2553 
Q 372 3047 722 3315 
Q 1072 3584 1716 3584 
Q 2034 3584 2315 3537 
Q 2597 3491 2834 3397 
z
" transform="scale(0.015625)"/>
      </defs>
      <use xlink:href="#DejaVuSans-42"/>
      <use xlink:href="#DejaVuSans-75" x="68.603516"/>
      <use xlink:href="#DejaVuSans-73" x="131.982422"/>
     </g>
    </g>
   </g>
  </g>
 </g>
 <defs>
  <clipPath id="p92e0f899e7">
   <rect x="54" y="34.56" width="334.8" height="217.44"/>
  </clipPath>
 </defs>
</svg>
